<?xml version="1.0" encoding="UTF-8" standalone="no"?>
<!-- Created with Inkscape (http://www.inkscape.org/) -->

<svg
   version="1.1"
   id="svg2"
   width="1075.2225"
   height="240.36531"
   viewBox="0 0 1075.2225 240.36531"
   sodipodi:docname="logos-redimed-26.ai"
   xmlns:inkscape="http://www.inkscape.org/namespaces/inkscape"
   xmlns:sodipodi="http://sodipodi.sourceforge.net/DTD/sodipodi-0.dtd"
   xmlns="http://www.w3.org/2000/svg"
   xmlns:svg="http://www.w3.org/2000/svg">
  <defs
     id="defs6">
    <linearGradient
       x1="0"
       y1="0"
       x2="1"
       y2="0"
       gradientUnits="userSpaceOnUse"
       gradientTransform="matrix(0,72.530273,72.530273,0,582.40167,484.3111)"
       spreadMethod="pad"
       id="linearGradient82">
      <stop
         style="stop-opacity:1;stop-color:#009600"
         offset="0"
         id="stop76" />
      <stop
         style="stop-opacity:1;stop-color:#ff8200"
         offset="0.87418701"
         id="stop78" />
      <stop
         style="stop-opacity:1;stop-color:#ff8200"
         offset="1"
         id="stop80" />
    </linearGradient>
    <linearGradient
       x1="0"
       y1="0"
       x2="1"
       y2="0"
       gradientUnits="userSpaceOnUse"
       gradientTransform="matrix(0,73.853516,73.853516,0,641.81775,483.51715)"
       spreadMethod="pad"
       id="linearGradient104">
      <stop
         style="stop-opacity:1;stop-color:#009600"
         offset="0"
         id="stop98" />
      <stop
         style="stop-opacity:1;stop-color:#ff8200"
         offset="0.87418701"
         id="stop100" />
      <stop
         style="stop-opacity:1;stop-color:#ff8200"
         offset="1"
         id="stop102" />
    </linearGradient>
    <linearGradient
       x1="0"
       y1="0"
       x2="1"
       y2="0"
       gradientUnits="userSpaceOnUse"
       gradientTransform="matrix(0,98.736328,98.736328,0,725.7265,483.7818)"
       spreadMethod="pad"
       id="linearGradient126">
      <stop
         style="stop-opacity:1;stop-color:#009600"
         offset="0"
         id="stop120" />
      <stop
         style="stop-opacity:1;stop-color:#ff8200"
         offset="0.87418701"
         id="stop122" />
      <stop
         style="stop-opacity:1;stop-color:#ff8200"
         offset="1"
         id="stop124" />
    </linearGradient>
    <linearGradient
       x1="0"
       y1="0"
       x2="1"
       y2="0"
       gradientUnits="userSpaceOnUse"
       gradientTransform="matrix(0,73.05957,73.05957,0,871.1441,484.3111)"
       spreadMethod="pad"
       id="linearGradient148">
      <stop
         style="stop-opacity:1;stop-color:#009600"
         offset="0"
         id="stop142" />
      <stop
         style="stop-opacity:1;stop-color:#ff8200"
         offset="0.87418701"
         id="stop144" />
      <stop
         style="stop-opacity:1;stop-color:#ff8200"
         offset="1"
         id="stop146" />
    </linearGradient>
    <linearGradient
       x1="0"
       y1="0"
       x2="1"
       y2="0"
       gradientUnits="userSpaceOnUse"
       gradientTransform="matrix(0,73.853516,73.853516,0,970.52966,483.51715)"
       spreadMethod="pad"
       id="linearGradient170">
      <stop
         style="stop-opacity:1;stop-color:#009600"
         offset="0"
         id="stop164" />
      <stop
         style="stop-opacity:1;stop-color:#ff8200"
         offset="0.87418701"
         id="stop166" />
      <stop
         style="stop-opacity:1;stop-color:#ff8200"
         offset="1"
         id="stop168" />
    </linearGradient>
    <linearGradient
       x1="0"
       y1="0"
       x2="1"
       y2="0"
       gradientUnits="userSpaceOnUse"
       gradientTransform="matrix(0,98.736328,98.736328,0,1056.4384,483.7818)"
       spreadMethod="pad"
       id="linearGradient192">
      <stop
         style="stop-opacity:1;stop-color:#009600"
         offset="0"
         id="stop186" />
      <stop
         style="stop-opacity:1;stop-color:#ff8200"
         offset="0.87418701"
         id="stop188" />
      <stop
         style="stop-opacity:1;stop-color:#ff8200"
         offset="1"
         id="stop190" />
    </linearGradient>
    <linearGradient
       x1="0"
       y1="0"
       x2="1"
       y2="0"
       gradientUnits="userSpaceOnUse"
       gradientTransform="matrix(0,180.27357,180.27357,0,794.76611,449.86322)"
       spreadMethod="pad"
       id="linearGradient214">
      <stop
         style="stop-opacity:1;stop-color:#009600"
         offset="0"
         id="stop208" />
      <stop
         style="stop-opacity:1;stop-color:#ff8200"
         offset="0.64265287"
         id="stop210" />
      <stop
         style="stop-opacity:1;stop-color:#ff8200"
         offset="1"
         id="stop212" />
    </linearGradient>
  </defs>
  <sodipodi:namedview
     id="namedview4"
     pagecolor="#ffffff"
     bordercolor="#000000"
     borderopacity="0.25"
     inkscape:showpageshadow="2"
     inkscape:pageopacity="0.0"
     inkscape:pagecheckerboard="0"
     inkscape:deskcolor="#d1d1d1"
     showgrid="false" />
  <g
     id="g56"
     inkscape:groupmode="layer"
     inkscape:label="Page 2"
     transform="matrix(1.3333333,0,0,-1.3333333,-737.96878,840.18265)">
    <text
       xml:space="preserve"
       transform="matrix(1,0,0,-1,1111.2845,528.5488)"
       style="font-style:italic;font-variant:normal;font-weight:normal;font-stretch:normal;font-size:32.1949px;font-family:'Gotham Rounded Bold';-inkscape-font-specification:GothamRounded-BoldItalic;writing-mode:lr-tb;fill:#111111;fill-opacity:1;fill-rule:nonzero;stroke:none"
       id="text62"><tspan
         x="0 23.856421 45.716759 71.182922 81.292122 92.560341 118.31626 138.72783 160.58817 186.15091 210.00734 235.08716"
         y="0"
         sodipodi:role="line"
         id="tspan58">RED INTEGRAL</tspan><tspan
         x="-10.109199 18.286703 40.147041 65.613205 76.881424 100.70565"
         y="38.633881"
         sodipodi:role="line"
         id="tspan60">MEDICA</tspan></text>
    <g
       id="g64">
      <g
         id="g66">
        <g
           id="g72">
          <g
             id="g74">
            <path
               d="m 586.444,543.208 0.397,1.589 c 1.721,7.148 -1.588,12.045 -8.206,12.045 v 0 c -5.295,0 -9.53,-3.707 -11.25,-10.192 v 0 l -13.236,-49.104 c -2.25,-8.338 1.324,-13.235 8.074,-13.235 v 0 c 5.294,0 9.53,3.706 11.25,10.191 v 0 l 4.367,15.75 c 4.236,15.75 12.177,23.692 24.751,27.265 v 0 c 6.089,1.721 8.736,5.03 8.736,10.325 v 0 c 0,5.69 -3.442,9 -8.603,9 v 0 c -6.089,0 -11.515,-4.5 -16.28,-13.634"
               style="fill:url(#linearGradient82);stroke:none"
               id="path84" />
          </g>
        </g>
      </g>
    </g>
    <g
       id="g86">
      <g
         id="g88">
        <g
           id="g94">
          <g
             id="g96">
            <path
               d="m 606.28,515.017 c 0,-19.589 12.441,-31.5 32.824,-31.5 v 0 c 8.868,0 16.81,2.25 23.03,6.353 v 0 c 2.25,1.455 3.838,3.971 3.838,6.75 v 0 c 0,4.5 -3.308,7.676 -7.544,7.676 v 0 c -2.117,0 -4.367,-0.926 -6.088,-1.852 v 0 c -2.647,-1.456 -6.618,-2.78 -10.986,-2.78 v 0 c -10.588,0 -15.485,5.559 -16.147,13.897 v 0 h 41.692 c 5.294,0 8.339,3.044 9.662,8.868 v 0 c 0.529,2.382 0.793,5.029 0.793,7.279 v 0 c 0,15.75 -10.587,27.663 -28.985,27.663 v 0 c -25.412,0 -42.089,-21.84 -42.089,-42.354 m 40.501,26.206 c 8.207,0 11.647,-4.631 11.647,-10.456 v 0 c 0,-1.721 -0.264,-3.309 -0.661,-4.632 v 0 h -30.84 c 3.31,9 10.721,15.088 19.854,15.088"
               style="fill:url(#linearGradient104);stroke:none"
               id="path106" />
          </g>
        </g>
      </g>
    </g>
    <g
       id="g108">
      <g
         id="g110">
        <g
           id="g116">
          <g
             id="g118">
            <path
               d="m 749.942,572.327 -7.015,-26.604 c -4.632,7.016 -11.117,11.648 -22.235,11.648 v 0 c -19.985,0 -39.178,-18 -39.178,-43.148 v 0 c 0,-19.192 11.78,-30.442 27.266,-30.442 v 0 c 7.941,0 13.897,3.31 19.985,9 v 0 c 0,-5.029 3.045,-8.47 8.868,-8.47 v 0 c 5.691,0 9.927,3.706 11.647,10.191 v 0 l 19.986,74.78 c 2.25,8.339 -1.324,13.236 -8.074,13.236 v 0 c -5.294,0 -9.529,-3.706 -11.25,-10.191 m -47.648,-56.781 c 0,14.296 10.192,24.883 21.045,24.883 v 0 c 8.868,0 15.221,-6.087 15.221,-15.087 v 0 c 0,-13.501 -10.324,-24.619 -21.442,-24.619 v 0 c -9,0 -14.824,5.558 -14.824,14.823"
               style="fill:url(#linearGradient126);stroke:none"
               id="path128" />
          </g>
        </g>
      </g>
    </g>
    <g
       id="g130">
      <g
         id="g132">
        <g
           id="g138">
          <g
             id="g140">
            <path
               d="m 884.186,544.532 c -2.779,7.81 -9.132,12.839 -18.794,12.839 v 0 c -7.941,0 -13.764,-4.236 -18.794,-8.736 v 0 c 0,4.5 -3.176,8.207 -9,8.207 v 0 c -5.692,0 -9.927,-3.707 -11.647,-10.192 v 0 l -13.104,-49.104 c -2.25,-8.338 1.324,-13.235 8.074,-13.235 v 0 c 5.294,0 9.53,3.706 11.25,10.191 v 0 l 8.206,30.442 c 2.25,8.471 7.148,14.162 15.088,14.162 v 0 c 6.221,0 9.397,-3.044 9.397,-8.735 v 0 c 0,-1.721 -0.397,-4.369 -0.926,-6.354 v 0 l -7.147,-26.471 c -2.25,-8.338 1.323,-13.235 8.073,-13.235 v 0 c 5.295,0 9.53,3.706 11.25,10.191 v 0 l 8.206,30.442 c 2.25,8.471 7.147,14.162 15.089,14.162 v 0 c 6.221,0 9.398,-3.044 9.398,-8.735 v 0 c 0,-1.721 -0.398,-4.369 -0.927,-6.354 v 0 l -7.147,-26.471 c -2.25,-8.338 1.324,-13.235 8.074,-13.235 v 0 c 5.294,0 9.529,3.706 11.25,10.191 v 0 l 7.677,28.721 c 1.19,4.5 2.382,9.529 2.382,13.5 v 0 c 0,12.839 -7.809,20.648 -20.515,20.648 v 0 c -10.721,0 -19.192,-5.294 -25.413,-12.839"
               style="fill:url(#linearGradient148);stroke:none"
               id="path150" />
          </g>
        </g>
      </g>
    </g>
    <g
       id="g152">
      <g
         id="g154">
        <g
           id="g160">
          <g
             id="g162">
            <path
               d="m 934.993,515.017 c 0,-19.589 12.441,-31.5 32.823,-31.5 v 0 c 8.868,0 16.809,2.25 23.03,6.353 v 0 c 2.25,1.455 3.839,3.971 3.839,6.75 v 0 c 0,4.5 -3.31,7.676 -7.545,7.676 v 0 c -2.118,0 -4.368,-0.926 -6.089,-1.852 v 0 c -2.647,-1.456 -6.617,-2.78 -10.985,-2.78 v 0 c -10.588,0 -15.485,5.559 -16.147,13.897 v 0 h 41.692 c 5.294,0 8.338,3.044 9.662,8.868 v 0 c 0.529,2.382 0.794,5.029 0.794,7.279 v 0 c 0,15.75 -10.589,27.663 -28.986,27.663 v 0 c -25.412,0 -42.088,-21.84 -42.088,-42.354 m 40.5,26.206 c 8.206,0 11.647,-4.631 11.647,-10.456 v 0 c 0,-1.721 -0.265,-3.309 -0.662,-4.632 v 0 H 955.64 c 3.308,9 10.721,15.088 19.853,15.088"
               style="fill:url(#linearGradient170);stroke:none"
               id="path172" />
          </g>
        </g>
      </g>
    </g>
    <g
       id="g174">
      <g
         id="g176">
        <g
           id="g182">
          <g
             id="g184">
            <path
               d="m 1080.654,572.327 -7.014,-26.604 c -4.634,7.016 -11.119,11.648 -22.236,11.648 v 0 c -19.986,0 -39.178,-18 -39.178,-43.148 v 0 c 0,-19.192 11.78,-30.442 27.266,-30.442 v 0 c 7.941,0 13.897,3.31 19.985,9 v 0 c 0,-5.029 3.044,-8.47 8.869,-8.47 v 0 c 5.69,0 9.925,3.706 11.646,10.191 v 0 l 19.985,74.78 c 2.251,8.339 -1.323,13.236 -8.073,13.236 v 0 c -5.294,0 -9.529,-3.706 -11.25,-10.191 m -47.648,-56.781 c 0,14.296 10.192,24.883 21.044,24.883 v 0 c 8.869,0 15.221,-6.087 15.221,-15.087 v 0 c 0,-13.501 -10.323,-24.619 -21.442,-24.619 v 0 c -9,0 -14.823,5.558 -14.823,14.823"
               style="fill:url(#linearGradient192);stroke:none"
               id="path194" />
          </g>
        </g>
      </g>
    </g>
    <g
       id="g196">
      <g
         id="g198">
        <g
           id="g204">
          <g
             id="g206">
            <path
               d="m 791.955,613.106 -0.244,-1.215 c -1.946,-9.732 6.081,-17.031 17.759,-17.031 v 0 c 11.678,0 21.653,6.569 23.842,17.031 v 0 l 0.244,1.215 c 1.945,9.733 -6.082,17.031 -17.76,17.031 v 0 c -11.678,0 -21.652,-6.568 -23.841,-17.031 M 781.25,564.45 756.922,474.192 c -4.136,-15.327 2.432,-24.329 14.84,-24.329 v 0 c 9.731,0 17.516,6.813 20.679,18.735 v 0 l 24.328,90.256 c 4.136,15.327 -2.433,24.329 -14.84,24.329 v 0 c -9.732,0 -17.517,-6.811 -20.679,-18.733"
               style="fill:url(#linearGradient214);stroke:none"
               id="path216" />
          </g>
        </g>
      </g>
    </g>
  </g>
</svg>
